<svg version="1.1" id="Layer_1" xmlns="http://www.w3.org/2000/svg" xmlns:xlink="http://www.w3.org/1999/xlink" x="0px" y="0px"
	 width="100%" viewBox="0 0 512 512" enable-background="new 0 0 512 512" xml:space="preserve">
<path fill="#000001" opacity="1.000000" stroke="none" 
	d="
M312.000000,513.000000 
	C208.025253,513.000000 104.550499,513.000000 1.037875,513.000000 
	C1.037875,342.400238 1.037875,171.800446 1.037875,1.100329 
	C171.558090,1.100329 342.116272,1.100329 512.837219,1.100329 
	C512.837219,171.666534 512.837219,342.333252 512.837219,513.000000 
	C446.133759,513.000000 379.316864,513.000000 312.000000,513.000000 
M189.533829,477.043121 
	C222.865341,487.289520 256.869507,490.098053 291.253296,484.623962 
	C352.600433,474.857147 402.222015,444.897980 439.860229,395.547760 
	C465.693787,361.675415 480.315033,323.169739 484.892456,280.852325 
	C487.849945,253.511017 484.614990,226.614822 477.919342,200.161453 
	C461.431610,135.021576 424.501190,85.397148 364.238220,54.635395 
	C315.735474,29.876740 264.288849,23.495161 210.847443,33.787498 
	C161.729599,43.247150 119.338768,65.492218 86.397255,103.345009 
	C40.765114,155.780472 22.865911,217.600098 30.091869,286.293884 
	C35.307365,335.875122 56.531506,378.672272 90.547607,415.036011 
	C117.842461,444.214569 150.775452,464.582245 189.533829,477.043121 
z"/>
<path fill="#2D8CFE" opacity="1.000000" stroke="none" 
	d="
M189.142395,476.956604 
	C150.775452,464.582245 117.842461,444.214569 90.547607,415.036011 
	C56.531506,378.672272 35.307365,335.875122 30.091869,286.293884 
	C22.865911,217.600098 40.765114,155.780472 86.397255,103.345009 
	C119.338768,65.492218 161.729599,43.247150 210.847443,33.787498 
	C264.288849,23.495161 315.735474,29.876740 364.238220,54.635395 
	C424.501190,85.397148 461.431610,135.021576 477.919342,200.161453 
	C484.614990,226.614822 487.849945,253.511017 484.892456,280.852325 
	C480.315033,323.169739 465.693787,361.675415 439.860229,395.547760 
	C402.222015,444.897980 352.600433,474.857147 291.253296,484.623962 
	C256.869507,490.098053 222.865341,487.289520 189.142395,476.956604 
M402.420135,277.194885 
	C406.409637,275.719116 407.074524,272.524384 407.064819,268.748993 
	C406.993286,240.933960 407.002228,213.118759 406.971008,185.303619 
	C406.969330,183.807663 406.969269,182.291031 406.740845,180.819336 
	C405.058899,169.982208 396.756805,166.093323 387.363708,171.736649 
	C385.798126,172.677231 384.321442,173.772202 382.841278,174.847549 
	C366.007721,187.077438 349.184570,199.321732 332.347168,211.546341 
	C330.979462,212.539368 329.527069,213.415756 327.918976,214.474777 
	C327.494995,213.282974 327.265198,212.838150 327.179504,212.367126 
	C323.007782,189.432968 308.310944,173.519684 285.326843,170.018555 
	C272.122772,168.007202 258.452148,168.855026 244.994431,168.929703 
	C242.954758,168.941025 240.930603,171.752289 237.976273,173.229446 
	C229.362061,173.265656 220.747864,173.301849 211.667297,172.736725 
	C209.283096,171.506546 207.011902,169.660828 204.486969,169.197327 
	C201.101639,168.575882 197.520020,169.023315 194.022675,169.012589 
	C167.546921,168.931366 141.069321,168.640533 114.596336,168.873138 
	C104.094582,168.965408 99.000443,174.367584 98.960808,184.875763 
	C98.820740,222.013351 98.782860,259.153107 99.061882,296.289368 
	C99.140846,306.798431 102.634071,316.572571 108.857964,325.166595 
	C120.452393,341.176392 136.974838,346.767090 155.875534,346.799469 
	C206.671570,346.886475 257.467834,346.836304 308.264008,346.804688 
	C310.581879,346.803253 312.913940,346.557434 315.214569,346.243469 
	C321.722015,345.355438 326.021759,341.663147 327.128754,335.239929 
	C327.997009,330.201904 328.042236,324.999969 328.178619,319.863556 
	C328.343109,313.669373 328.217560,307.467499 328.217560,300.382111 
	C346.912628,313.957550 364.655731,326.879395 382.454590,339.724030 
	C385.002472,341.562744 387.663086,343.409332 390.542664,344.592499 
	C398.157501,347.721436 404.120026,344.525360 405.994751,336.482086 
	C406.594391,333.909454 406.926514,331.222809 406.969116,328.581665 
	C407.098083,320.589783 406.908234,312.592133 407.079102,304.601776 
	C407.167542,300.465485 405.795197,297.492340 401.930267,294.947052 
	C401.914978,289.169281 401.899689,283.391541 402.420135,277.194885 
z"/>
<path fill="#F0F0F0" opacity="1.000000" stroke="none" 
	d="
M212.133652,173.338058 
	C220.747864,173.301849 229.362061,173.265656 238.454102,173.642349 
	C239.065781,180.555573 241.146530,182.739761 247.602676,182.803131 
	C255.931595,182.884903 264.262329,182.770966 272.591614,182.834152 
	C298.511780,183.030777 313.971283,198.399246 314.014221,224.225983 
	C314.071259,258.544128 313.970306,292.862518 313.923431,327.180817 
	C313.921234,328.784363 313.784637,330.387726 313.700684,332.206635 
	C311.526489,332.339264 309.713104,332.545868 307.899658,332.546509 
	C257.254883,332.563904 206.609818,332.642883 155.965805,332.449280 
	C150.062103,332.426727 143.942627,331.608002 138.306122,329.896942 
	C122.773331,325.181641 113.155525,311.384033 113.064301,293.652039 
	C112.877449,257.335999 113.046402,221.018082 113.085907,184.700958 
	C113.086403,184.245163 113.311623,183.789612 113.563835,182.834473 
	C116.833473,182.834473 120.123917,182.822311 123.414246,182.836365 
	C149.901245,182.949524 176.388184,183.084518 202.875259,183.173889 
	C210.799469,183.200623 212.614471,181.214111 212.133652,173.338058 
z"/>
<path fill="#020203" opacity="1.000000" stroke="none" 
	d="
M211.900482,173.037384 
	C212.614471,181.214111 210.799469,183.200623 202.875259,183.173889 
	C176.388184,183.084518 149.901245,182.949524 123.414246,182.836365 
	C120.123917,182.822311 116.833473,182.834473 113.563835,182.834473 
	C113.311623,183.789612 113.086403,184.245163 113.085907,184.700958 
	C113.046402,221.018082 112.877449,257.335999 113.064301,293.652039 
	C113.155525,311.384033 122.773331,325.181641 138.306122,329.896942 
	C143.942627,331.608002 150.062103,332.426727 155.965805,332.449280 
	C206.609818,332.642883 257.254883,332.563904 307.899658,332.546509 
	C309.713104,332.545868 311.526489,332.339264 313.700684,332.206635 
	C313.784637,330.387726 313.921234,328.784363 313.923431,327.180817 
	C313.970306,292.862518 314.071259,258.544128 314.014221,224.225983 
	C313.971283,198.399246 298.511780,183.030777 272.591614,182.834152 
	C264.262329,182.770966 255.931595,182.884903 247.602676,182.803131 
	C241.146530,182.739761 239.065781,180.555573 238.915588,173.661850 
	C240.930603,171.752289 242.954758,168.941025 244.994431,168.929703 
	C258.452148,168.855026 272.122772,168.007202 285.326843,170.018555 
	C308.310944,173.519684 323.007782,189.432968 327.179504,212.367126 
	C327.265198,212.838150 327.494995,213.282974 327.918976,214.474777 
	C329.527069,213.415756 330.979462,212.539368 332.347168,211.546341 
	C349.184570,199.321732 366.007721,187.077438 382.841278,174.847549 
	C384.321442,173.772202 385.798126,172.677231 387.363708,171.736649 
	C396.756805,166.093323 405.058899,169.982208 406.740845,180.819336 
	C406.969269,182.291031 406.969330,183.807663 406.971008,185.303619 
	C407.002228,213.118759 406.993286,240.933960 407.064819,268.748993 
	C407.074524,272.524384 406.409637,275.719116 401.778625,277.393616 
	C394.672150,277.018951 392.962006,275.273224 392.949951,268.906158 
	C392.900757,242.913284 392.892944,216.920334 392.870209,190.927399 
	C392.868835,189.338531 392.870056,187.749649 392.870056,185.500778 
	C391.501709,186.269928 390.790985,186.584808 390.173218,187.028946 
	C370.177216,201.405655 350.170380,215.767563 330.255432,230.255798 
	C329.162506,231.050919 328.268494,232.907532 328.255951,234.278931 
	C328.115967,249.606812 328.089691,264.937439 328.282898,280.264160 
	C328.303223,281.876312 329.524445,284.008240 330.857910,284.987122 
	C346.150574,296.213409 361.567383,307.270691 376.963928,318.355286 
	C382.009491,321.987793 387.091980,325.569000 392.927765,329.721741 
	C392.927765,320.867523 392.905853,313.088531 392.934113,305.309784 
	C392.960693,297.996490 394.733765,296.154297 401.897095,295.866089 
	C405.795197,297.492340 407.167542,300.465485 407.079102,304.601776 
	C406.908234,312.592133 407.098083,320.589783 406.969116,328.581665 
	C406.926514,331.222809 406.594391,333.909454 405.994751,336.482086 
	C404.120026,344.525360 398.157501,347.721436 390.542664,344.592499 
	C387.663086,343.409332 385.002472,341.562744 382.454590,339.724030 
	C364.655731,326.879395 346.912628,313.957550 328.217560,300.382111 
	C328.217560,307.467499 328.343109,313.669373 328.178619,319.863556 
	C328.042236,324.999969 327.997009,330.201904 327.128754,335.239929 
	C326.021759,341.663147 321.722015,345.355438 315.214569,346.243469 
	C312.913940,346.557434 310.581879,346.803253 308.264008,346.804688 
	C257.467834,346.836304 206.671570,346.886475 155.875534,346.799469 
	C136.974838,346.767090 120.452393,341.176392 108.857964,325.166595 
	C102.634071,316.572571 99.140846,306.798431 99.061882,296.289368 
	C98.782860,259.153107 98.820740,222.013351 98.960808,184.875763 
	C99.000443,174.367584 104.094582,168.965408 114.596336,168.873138 
	C141.069321,168.640533 167.546921,168.931366 194.022675,169.012589 
	C197.520020,169.023315 201.101639,168.575882 204.486969,169.197327 
	C207.011902,169.660828 209.283096,171.506546 211.900482,173.037384 
z"/>
<path fill="#EFEFEF" opacity="1.000000" stroke="none" 
	d="
M401.913696,295.406555 
	C394.733765,296.154297 392.960693,297.996490 392.934113,305.309784 
	C392.905853,313.088531 392.927765,320.867523 392.927765,329.721741 
	C387.091980,325.569000 382.009491,321.987793 376.963928,318.355286 
	C361.567383,307.270691 346.150574,296.213409 330.857910,284.987122 
	C329.524445,284.008240 328.303223,281.876312 328.282898,280.264160 
	C328.089691,264.937439 328.115967,249.606812 328.255951,234.278931 
	C328.268494,232.907532 329.162506,231.050919 330.255432,230.255798 
	C350.170380,215.767563 370.177216,201.405655 390.173218,187.028946 
	C390.790985,186.584808 391.501709,186.269928 392.870056,185.500778 
	C392.870056,187.749649 392.868835,189.338531 392.870209,190.927399 
	C392.892944,216.920334 392.900757,242.913284 392.949951,268.906158 
	C392.962006,275.273224 394.672150,277.018951 401.510742,277.603088 
	C401.899689,283.391541 401.914978,289.169281 401.913696,295.406555 
z"/>
</svg>